# xmcd CD database file
#
# Track frame offsets:
#	150
#	14325
#	100075
#	114510
#	127489
#	139062
#	153565
#	167280
#	187388
#	195638
#	210545
#	224259
#	234070
#	262385
#
# Disc length: 3744 seconds
#
# Revision: 0
# Processed by: cddbd v1.5.2PL0 Copyright (c) Steve Scherf et al.
# Submitted via: CDex 1.70beta2
#
DISCID=cf0e9e0e
DTITLE=村上春樹 - Jazz in Murakami Haruki
DYEAR=2008
DGENRE=Jazz
TTITLE0=Duke Ellington - It don't mean a thing
TTITLE1=John Coltrane - My Favorite Things
TTITLE2=Glenn Miller - Quiet night if quient stars
TTITLE3=Gene Autry - South of the Border
TTITLE4=Louis Armstrong - Hello Dolly
TTITLE5=Frank Sinatra - Stardust
TTITLE6=Benny Goodman - Moon Glow
TTITLE7=Buddy Greco - It's Magic
TTITLE8=Duke Ellington - Do nothing till you hear from me
TTITLE9=Astrud Gilberto - The Girl from Ipanema
TTITLE10=Ella Fitzgerald - Airmail Special
TTITLE11=Bing Crosby - White Christmas
TTITLE12=Sonny Stitt - Just friends
TTITLE13=Brook Benton - Rainy Night in Georgia
EXTD=YEAR: 2008
EXTT0=
EXTT1=
EXTT2=
EXTT3=
EXTT4=
EXTT5=
EXTT6=
EXTT7=
EXTT8=
EXTT9=
EXTT10=
EXTT11=
EXTT12=
EXTT13=
PLAYORDER=
